<svg xmlns="http://www.w3.org/2000/svg" viewBox="0 0 1024 1024" role="img" aria-labelledby="title desc">
  <title id="title">ONTRACK app icon</title>
  <desc id="desc">A white broken target ring crossed by a neon lime forward arrow on a black rounded square.</desc>
  <defs>
    <linearGradient id="bg" x1="0" y1="0" x2="1" y2="1">
      <stop offset="0" stop-color="#171b20"/>
      <stop offset="1" stop-color="#080a0d"/>
    </linearGradient>
    <linearGradient id="ring" x1="0" y1="0" x2="1" y2="1">
      <stop offset="0" stop-color="#ffffff"/>
      <stop offset="1" stop-color="#dfe3e8"/>
    </linearGradient>
    <linearGradient id="lime" x1="0" y1="1" x2="1" y2="0">
      <stop offset="0" stop-color="#9cff00"/>
      <stop offset="0.52" stop-color="#b9ff00"/>
      <stop offset="1" stop-color="#e6ff79"/>
    </linearGradient>
  </defs>
  <rect x="54" y="54" width="916" height="916" rx="236" fill="url(#bg)"/>
  <path d="M314 708a295 295 0 0 1 12-409 295 295 0 0 1 411-2l-90 90a168 168 0 0 0-233 0 168 168 0 0 0-10 225z" fill="url(#ring)"/>
  <path d="M714 350a295 295 0 0 1-17 394 295 295 0 0 1-377 34l90-90a168 168 0 0 0 199-29 168 168 0 0 0 15-219z" fill="url(#ring)"/>
  <path d="M282 770 590 462l124-45-41 128-305 305H282z" fill="url(#lime)"/>
  <path d="m590 462 124-45-41 128z" fill="#e9ff8a"/>
</svg>
